<?xml version="1.0" encoding="UTF-8"?>
<svg viewBox="0 0 1200 480" xmlns="http://www.w3.org/2000/svg" role="img" aria-label="Карта трьох флотів ВМФ РФ і зон досяжності крилатих ракет «Калібр»">

  <defs>
    <pattern id="hatch" pattern-units="userSpaceOnUse" width="6" height="6" pattern-transform="rotate(45)">
      <line x1="0" y1="0" x2="0" y2="6" stroke="#E2DFD4" stroke-width="1"/>
    </pattern>
    <linearGradient id="seaG" x1="0" y1="0" x2="0" y2="1">
      <stop offset="0%" stop-color="#E6EFF7"/>
      <stop offset="100%" stop-color="#D9E5F0"/>
    </linearGradient>
  </defs>

  <rect x="0" y="0" width="1200" height="480" fill="url(#seaG)"/>

  <path d="M -20 200 L 60 180 L 130 165 L 180 175 L 220 168 L 280 175 L 320 155 L 390 165 L 440 145 L 510 150 L 560 130 L 620 115 L 700 105 L 800 95 L 900 88 L 1000 95 L 1100 110 L 1220 130 L 1220 -20 L -20 -20 Z" fill="#F4F2EC" stroke="#C8C5B8" stroke-width="1"/>
  <path d="M -20 200 L 60 180 L 130 165 L 180 175 L 220 168 L 280 175 L 320 155 L 390 165 L 440 145 L 510 150 L 560 130 L 620 115 L 700 105 L 800 95 L 900 88 L 1000 95 L 1100 110 L 1220 130 L 1220 -20 L -20 -20 Z" fill="url(#hatch)" opacity="0.6"/>

  <path d="M 280 250 L 320 230 L 380 225 L 430 235 L 490 240 L 520 255 L 540 280 L 510 305 L 470 320 L 430 325 L 380 320 L 330 310 L 300 285 Z" fill="#F4F2EC" stroke="#C8C5B8" stroke-width="1"/>
  <path d="M 280 250 L 320 230 L 380 225 L 430 235 L 490 240 L 520 255 L 540 280 L 510 305 L 470 320 L 430 325 L 380 320 L 330 310 L 300 285 Z" fill="url(#hatch)" opacity="0.4"/>

  <path d="M 540 200 L 620 195 L 700 200 L 780 195 L 840 210 L 900 225 L 960 240 L 1020 235 L 1080 230 L 1140 240 L 1220 235 L 1220 480 L 540 480 Z" fill="#F4F2EC" stroke="#C8C5B8" stroke-width="1"/>
  <path d="M 540 200 L 620 195 L 700 200 L 780 195 L 840 210 L 900 225 L 960 240 L 1020 235 L 1080 230 L 1140 240 L 1220 235 L 1220 480 L 540 480 Z" fill="url(#hatch)" opacity="0.4"/>

  <path d="M 330 310 L 380 320 L 430 325 L 470 320 L 510 305 L 540 295 L 580 300 L 620 320 L 640 360 L 600 400 L 540 410 L 470 410 L 410 400 L 360 380 L 340 345 Z" fill="#C6D8E8" stroke="#9FB3C5" stroke-width="1"/>
  <text x="490" y="375" font-family="Georgia, serif" font-size="18" font-style="italic" fill="#1F4E78" text-anchor="middle">Чорне море</text>

  <path d="M 920 280 L 960 275 L 990 290 L 1005 330 L 1010 380 L 990 420 L 960 440 L 935 420 L 920 390 L 915 345 Z" fill="#C6D8E8" stroke="#9FB3C5" stroke-width="1"/>
  <text x="965" y="365" font-family="Georgia, serif" font-size="13" font-style="italic" fill="#1F4E78" text-anchor="middle">Каспій</text>

  <path d="M 460 70 L 500 65 L 530 80 L 540 130 L 525 170 L 490 180 L 450 175 L 425 155 L 415 110 Z" fill="#C6D8E8" stroke="#9FB3C5" stroke-width="1"/>
  <text x="475" y="125" font-family="Georgia, serif" font-size="13" font-style="italic" fill="#1F4E78" text-anchor="middle">Балтика</text>

  <circle cx="555" cy="305" r="280" fill="none" stroke="#C8102E" stroke-width="1" stroke-dasharray="2 4" opacity="0.5"/>
  <circle cx="555" cy="305" r="240" fill="rgba(200,16,46,0.04)" stroke="#C8102E" stroke-width="1.5" stroke-dasharray="6 6" opacity="0.7"/>

  <circle cx="970" cy="360" r="300" fill="none" stroke="#8C2D04" stroke-width="1" stroke-dasharray="2 4" opacity="0.45"/>

  <circle cx="425" cy="135" r="270" fill="none" stroke="#1F4E78" stroke-width="1" stroke-dasharray="2 4" opacity="0.4"/>

  <g>
    <circle cx="395" cy="245" r="3.5" fill="#0E1B2A"/>
    <text x="402" y="241" font-family="Georgia, serif" font-size="13" font-weight="700" fill="#0E1B2A">Київ</text>
  </g>

  <g>
    <circle cx="445" cy="278" r="3.5" fill="#0E1B2A"/>
    <text x="452" y="274" font-family="Georgia, serif" font-size="13" font-weight="700" fill="#0E1B2A">Дніпро</text>
  </g>

  <path d="M 555 305 Q 470 220 395 245" fill="none" stroke="#C8102E" stroke-width="2.2"/>
  <path d="M 970 360 Q 720 280 445 278" fill="none" stroke="#8C2D04" stroke-width="2" stroke-dasharray="6 4" opacity="0.85"/>
  <path d="M 425 135 Q 410 200 395 245" fill="none" stroke="#1F4E78" stroke-width="1.5" stroke-dasharray="2 4" opacity="0.55"/>
  <line x1="378" y1="170" x2="408" y2="200" stroke="#5C6B7A" stroke-width="2"/>
  <text x="368" y="190" font-family="Arial Narrow, Arial, sans-serif" font-size="10" font-weight="700" letter-spacing="0.1em" fill="#5C6B7A" text-anchor="end">НЕ ВИКОРИСТ.</text>

  <g>
    <rect x="412" y="328" width="9" height="9" fill="#FFFFFF" stroke="#8C2D04" stroke-width="2"/>
    <line x1="409" y1="325" x2="424" y2="340" stroke="#8C2D04" stroke-width="2"/>
    <text x="427" y="338" font-family="Arial Narrow, Arial, sans-serif" font-size="11" font-weight="700" letter-spacing="0.06em" fill="#8C2D04">СЕВАСТОПОЛЬ</text>
    <text x="427" y="350" font-family="Arial Narrow, Arial, sans-serif" font-size="9" letter-spacing="0.1em" fill="#8C2D04">до 2023 · перебаз.</text>
  </g>

  <g>
    <rect x="551" y="301" width="10" height="10" fill="#C8102E"/>
    <text x="566" y="310" font-family="Arial Narrow, Arial, sans-serif" font-size="12" font-weight="700" letter-spacing="0.08em" fill="#C8102E">НОВОРОСІЙСЬК</text>
    <text x="566" y="322" font-family="Arial Narrow, Arial, sans-serif" font-size="9" letter-spacing="0.1em" fill="#5C6B7A">база ЧФ з 2023</text>
  </g>

  <g>
    <rect x="965" y="356" width="10" height="10" fill="#8C2D04"/>
    <text x="980" y="365" font-family="Arial Narrow, Arial, sans-serif" font-size="12" font-weight="700" letter-spacing="0.08em" fill="#8C2D04">КАСПІЙСЬК</text>
    <text x="980" y="377" font-family="Arial Narrow, Arial, sans-serif" font-size="9" letter-spacing="0.1em" fill="#5C6B7A">база Каспійської фл.</text>
  </g>

  <g>
    <rect x="421" y="131" width="10" height="10" fill="#1F4E78"/>
    <text x="436" y="140" font-family="Arial Narrow, Arial, sans-serif" font-size="11" font-weight="700" letter-spacing="0.08em" fill="#1F4E78">КАЛІНІНГРАД</text>
    <text x="436" y="151" font-family="Arial Narrow, Arial, sans-serif" font-size="9" letter-spacing="0.1em" fill="#5C6B7A">анклав · БФ</text>
  </g>
  <g>
    <rect x="478" y="93" width="9" height="9" fill="#1F4E78" opacity="0.7"/>
    <text x="492" y="101" font-family="Arial Narrow, Arial, sans-serif" font-size="10" font-weight="700" letter-spacing="0.08em" fill="#1F4E78">КРОНШТАДТ</text>
  </g>

  <text x="555" y="540" display="none"/>
  <g transform="translate(355,510)">
    <text font-family="Arial Narrow, Arial, sans-serif" font-size="11" font-weight="700" letter-spacing="0.14em" fill="#C8102E">— ЧФ · ОСНОВНА ЗАГРОЗА</text>
  </g>

  <g transform="translate(1080,460)">
    <rect x="-118" y="-16" width="118" height="24" fill="#FFFFFF" stroke="#C8102E"/>
    <text font-family="Arial Narrow, Arial, sans-serif" font-size="10.5" font-weight="700" letter-spacing="0.14em" fill="#C8102E" text-anchor="middle" x="-59" y="0">ДАЛЬНІСТЬ ~1700 КМ</text>
  </g>

  <g>
    <text x="30" y="40" font-family="Arial Narrow, Arial, sans-serif" font-size="11" font-weight="700" letter-spacing="0.22em" fill="#5C6B7A">ТЕАТР · ЛЮТИЙ 2022 – ТРАВЕНЬ 2026</text>
    <text x="30" y="68" font-family="Georgia, serif" font-size="22" font-weight="700" fill="#0E1B2A">Три флоти у зоні досяжності України</text>
    <text x="30" y="92" font-family="Georgia, serif" font-style="italic" font-size="14" fill="#5C6B7A">Чорноморський — активний. Каспій — після паузи. Балтика — мовчить.</text>
  </g>

</svg>
