<svg width="41" height="44" viewBox="0 0 41 44" fill="none" xmlns="http://www.w3.org/2000/svg">
<ellipse cx="20.5" cy="21.5541" rx="20.5" ry="21.5541" fill="#2A2A2A"/>
<path d="M6.16143 21.3982C8.76723 19.3928 11.9235 18.103 15.1785 17.6176C18.0504 17.1892 20.7961 17.866 23.5143 18.7525C25.058 19.2561 28.1318 21.004 29.5448 19.3678C31.6253 16.9568 35.1968 17.0001 35.1968 17.0001C35.1968 17.0001 34.7082 19.2789 31.9739 20.9994C31.9739 20.9994 34.8481 22.3987 35.0798 24.5977C35.0798 24.5977 32.0565 24.8894 29.609 22.6015C28.4942 21.5578 27.9804 21.7469 26.6156 22.4807C24.2277 23.766 22.1632 24.6251 19.4037 24.8872C15.8299 25.2267 11.9304 24.8256 8.63419 23.3375C5.06269 21.7264 6.15685 21.4005 6.16143 21.3982Z" fill="#F24C06"/>
</svg>
